HIERARCHY
ROOT newVegas:Hips
{
	OFFSET 0.000000 96.479958 0.000000
	CHANNELS 6 Xposition Yposition Zposition Xrotation Yrotation Zrotation
	JOINT newVegas:Pelvis
	{
		OFFSET 0.000000 0.000000 0.000000
		CHANNELS 3 Xrotation Yrotation Zrotation
		JOINT newVegas:LeftUpLeg
		{
			OFFSET 18.735201 -5.666702 -4.541200
			CHANNELS 3 Xrotation Yrotation Zrotation
			JOINT newVegas:LeftLeg
			{
				OFFSET -0.021200 -31.938179 0.493100
				CHANNELS 3 Xrotation Yrotation Zrotation
				JOINT newVegas:LeftFoot
				{
					OFFSET 0.021200 -31.938179 -4.336299
					CHANNELS 3 Xrotation Yrotation Zrotation
					JOINT newVegas:LeftToeBase
					{
						OFFSET 0.943001 -26.722000 15.023500
						CHANNELS 3 Xrotation Yrotation Zrotation
						End Site
						{
							OFFSET 0.000000 30.670183 0.000000
						}
					}
				}
				JOINT newVegas:Left_PantLeg
				{
					OFFSET 0.663870 -9.044666 -1.108900
					CHANNELS 3 Xrotation Yrotation Zrotation
					End Site
					{
						OFFSET 1.415995 20.635357 0.000000
					}
				}
			}
		}
		JOINT newVegas:RightUpLeg
		{
			OFFSET -18.735201 -5.666702 -4.541200
			CHANNELS 3 Xrotation Yrotation Zrotation
			JOINT newVegas:RightLeg
			{
				OFFSET 0.018946 -31.938133 0.493100
				CHANNELS 3 Xrotation Yrotation Zrotation
				JOINT newVegas:RightFoot
				{
					OFFSET -0.018946 -31.938126 -4.336299
					CHANNELS 3 Xrotation Yrotation Zrotation
					JOINT newVegas:RightToeBase
					{
						OFFSET -0.943001 -26.722004 15.023500
						CHANNELS 3 Xrotation Yrotation Zrotation
						End Site
						{
							OFFSET 0.000000 30.670187 0.000000
						}
					}
				}
				JOINT newVegas:Right_PantLeg
				{
					OFFSET -0.661674 -9.044716 -1.108900
					CHANNELS 3 Xrotation Yrotation Zrotation
					End Site
					{
						OFFSET -1.415958 20.635269 0.000000
					}
				}
			}
		}
	}
	JOINT newVegas:Spine
	{
		OFFSET 0.000000 10.199997 -0.299500
		CHANNELS 3 Xrotation Yrotation Zrotation
		JOINT newVegas:Spine1
		{
			OFFSET 0.000000 11.900002 -1.516600
			CHANNELS 3 Xrotation Yrotation Zrotation
			JOINT newVegas:Spine2
			{
				OFFSET 0.000000 13.600006 -2.842500
				CHANNELS 3 Xrotation Yrotation Zrotation
				JOINT newVegas:Neck
				{
					OFFSET 0.000000 9.624100 -2.890100
					CHANNELS 3 Xrotation Yrotation Zrotation
					JOINT newVegas:Head
					{
						OFFSET 0.000000 14.068802 -1.351900
						CHANNELS 3 Xrotation Yrotation Zrotation
						JOINT newVegas:Hair_Back
						{
							OFFSET 0.000000 3.231903 -17.524799
							CHANNELS 3 Xrotation Yrotation Zrotation
							End Site
							{
								OFFSET 0.000000 19.849884 0.000000
							}
						}
						JOINT newVegas:Hair_Front
						{
							OFFSET 0.000000 31.260406 4.573800
							CHANNELS 3 Xrotation Yrotation Zrotation
							JOINT newVegas:Hair_Front1
							{
								OFFSET 0.000000 2.284103 11.993300
								CHANNELS 3 Xrotation Yrotation Zrotation
								JOINT newVegas:Hair_Front2
								{
									OFFSET 0.000000 2.284103 11.993300
									CHANNELS 3 Xrotation Yrotation Zrotation
									End Site
									{
										OFFSET 0.000000 12.208862 0.000000
									}
								}
							}
						}
						JOINT newVegas:Jowel
						{
							OFFSET 0.000000 -7.458206 6.864100
							CHANNELS 3 Xrotation Yrotation Zrotation
							End Site
							{
								OFFSET 0.000000 19.849884 0.000000
							}
						}
					}
				}
				JOINT newVegas:LeftShoulder
				{
					OFFSET 15.263000 10.923401 -0.547700
					CHANNELS 3 Xrotation Yrotation Zrotation
					JOINT newVegas:LeftArm
					{
						OFFSET 25.438599 -2.830597 -13.032500
						CHANNELS 3 Xrotation Yrotation Zrotation
						JOINT newVegas:LeftForeArm
						{
							OFFSET 29.960503 0.000000 0.000000
							CHANNELS 3 Xrotation Yrotation Zrotation
							JOINT newVegas:LeftHand
							{
								OFFSET 27.849251 0.000000 0.000000
								CHANNELS 3 Xrotation Yrotation Zrotation
								JOINT newVegas:LeftHandThumb1
								{
									OFFSET 4.487587 -3.305161 6.305391
									CHANNELS 3 Xrotation Yrotation Zrotation
									JOINT newVegas:LeftHandThumb2
									{
										OFFSET 5.480453 -3.164139 3.164143
										CHANNELS 3 Xrotation Yrotation Zrotation
										JOINT newVegas:LeftHandThumb3
										{
											OFFSET 5.159721 -2.978973 2.978967
											CHANNELS 3 Xrotation Yrotation Zrotation
											End Site
											{
												OFFSET 2.494507 5.926697 1.738678
											}
										}
									}
								}
								JOINT newVegas:LeftHandIndex1
								{
									OFFSET 18.578728 -0.527832 5.208049
									CHANNELS 3 Xrotation Yrotation Zrotation
									JOINT newVegas:LeftHandIndex2
									{
										OFFSET 3.192009 0.000000 0.000000
										CHANNELS 3 Xrotation Yrotation Zrotation
										JOINT newVegas:LeftHandIndex3
										{
											OFFSET 3.835129 0.000000 0.000000
											CHANNELS 3 Xrotation Yrotation Zrotation
											End Site
											{
												OFFSET -0.034599 3.816971 0.371180
											}
										}
									}
								}
								JOINT newVegas:LeftHandMiddle1
								{
									OFFSET 18.476105 0.000000 0.000000
									CHANNELS 3 Xrotation Yrotation Zrotation
									JOINT newVegas:LeftHandMiddle2
									{
										OFFSET 3.324875 0.000000 0.000000
										CHANNELS 3 Xrotation Yrotation Zrotation
										JOINT newVegas:LeftHandMiddle3
										{
											OFFSET 4.596550 0.000000 0.000000
											CHANNELS 3 Xrotation Yrotation Zrotation
											End Site
											{
												OFFSET 0.057701 4.578827 0.399218
											}
										}
									}
								}
								JOINT newVegas:LeftHandRing1
								{
									OFFSET 17.732719 0.121887 -4.201567
									CHANNELS 3 Xrotation Yrotation Zrotation
									JOINT newVegas:LeftHandRing2
									{
										OFFSET 2.733170 0.000000 0.000000
										CHANNELS 3 Xrotation Yrotation Zrotation
										JOINT newVegas:LeftHandRing3
										{
											OFFSET 3.178268 0.000000 0.000000
											CHANNELS 3 Xrotation Yrotation Zrotation
											End Site
											{
												OFFSET 0.119102 3.170624 0.185394
											}
										}
									}
								}
								JOINT newVegas:LeftHandPinky1
								{
									OFFSET 15.989624 -0.606689 -7.535461
									CHANNELS 3 Xrotation Yrotation Zrotation
									JOINT newVegas:LeftHandPinky2
									{
										OFFSET 2.538986 0.000000 0.000000
										CHANNELS 3 Xrotation Yrotation Zrotation
										JOINT newVegas:LeftHandPinky3
										{
											OFFSET 2.593102 0.000000 0.000000
											CHANNELS 3 Xrotation Yrotation Zrotation
											End Site
											{
												OFFSET -0.150902 2.584198 0.152708
											}
										}
									}
								}
							}
							JOINT newVegas:Left_Sleeve
							{
								OFFSET 0.267448 -0.649796 0.577675
								CHANNELS 3 Xrotation Yrotation Zrotation
								End Site
								{
									OFFSET 0.000000 15.991241 0.000000
								}
							}
							JOINT newVegas:Left_CapeC
							{
								OFFSET 15.715958 -8.608795 -6.935905
								CHANNELS 3 Xrotation Yrotation Zrotation
								JOINT newVegas:Left_CapeC1
								{
									OFFSET 0.000000 -8.688499 0.000000
									CHANNELS 3 Xrotation Yrotation Zrotation
									End Site
									{
										OFFSET 0.000000 8.688499 0.000000
									}
								}
							}
						}
						JOINT newVegas:Left_CapeB
						{
							OFFSET 26.118385 -8.608795 -7.079235
							CHANNELS 3 Xrotation Yrotation Zrotation
							JOINT newVegas:Left_CapeB1
							{
								OFFSET 0.000000 -8.688499 0.000000
								CHANNELS 3 Xrotation Yrotation Zrotation
								End Site
								{
									OFFSET 0.000000 8.688499 0.000000
								}
							}
						}
						JOINT newVegas:Left_CapeA
						{
							OFFSET 5.115639 -8.608795 -10.395809
							CHANNELS 3 Xrotation Yrotation Zrotation
							JOINT newVegas:Left_CapeA1
							{
								OFFSET 0.000000 -8.688499 0.000000
								CHANNELS 3 Xrotation Yrotation Zrotation
								End Site
								{
									OFFSET 0.000000 8.688499 0.000000
								}
							}
						}
					}
				}
				JOINT newVegas:RightShoulder
				{
					OFFSET -15.263000 10.923401 -0.547700
					CHANNELS 3 Xrotation Yrotation Zrotation
					JOINT newVegas:RightArm
					{
						OFFSET -25.438599 -2.830597 -13.032500
						CHANNELS 3 Xrotation Yrotation Zrotation
						JOINT newVegas:RightForeArm
						{
							OFFSET -29.960503 0.000000 0.000000
							CHANNELS 3 Xrotation Yrotation Zrotation
							JOINT newVegas:RightHand
							{
								OFFSET -27.849251 0.000000 0.000000
								CHANNELS 3 Xrotation Yrotation Zrotation
								JOINT newVegas:RightHandThumb1
								{
									OFFSET -4.487587 -3.305161 6.305391
									CHANNELS 3 Xrotation Yrotation Zrotation
									JOINT newVegas:RightHandThumb2
									{
										OFFSET -5.480453 -3.164139 3.164143
										CHANNELS 3 Xrotation Yrotation Zrotation
										JOINT newVegas:RightHandThumb3
										{
											OFFSET -5.159721 -2.978973 2.978967
											CHANNELS 3 Xrotation Yrotation Zrotation
											End Site
											{
												OFFSET -2.494507 5.926697 1.738678
											}
										}
									}
								}
								JOINT newVegas:RightHandIndex1
								{
									OFFSET -18.578728 -0.527832 5.208049
									CHANNELS 3 Xrotation Yrotation Zrotation
									JOINT newVegas:RightHandIndex2
									{
										OFFSET -3.192009 0.000000 0.000000
										CHANNELS 3 Xrotation Yrotation Zrotation
										JOINT newVegas:RightHandIndex3
										{
											OFFSET -3.835129 0.000000 0.000000
											CHANNELS 3 Xrotation Yrotation Zrotation
											End Site
											{
												OFFSET 0.034599 3.816971 0.371180
											}
										}
									}
								}
								JOINT newVegas:RightHandMiddle1
								{
									OFFSET -18.476105 0.000000 0.000000
									CHANNELS 3 Xrotation Yrotation Zrotation
									JOINT newVegas:RightHandMiddle2
									{
										OFFSET -3.324875 0.000000 0.000000
										CHANNELS 3 Xrotation Yrotation Zrotation
										JOINT newVegas:RightHandMiddle3
										{
											OFFSET -4.596550 0.000000 0.000000
											CHANNELS 3 Xrotation Yrotation Zrotation
											End Site
											{
												OFFSET -0.057701 4.578827 0.399218
											}
										}
									}
								}
								JOINT newVegas:RightHandRing1
								{
									OFFSET -17.732719 0.121887 -4.201567
									CHANNELS 3 Xrotation Yrotation Zrotation
									JOINT newVegas:RightHandRing2
									{
										OFFSET -2.733170 0.000000 0.000000
										CHANNELS 3 Xrotation Yrotation Zrotation
										JOINT newVegas:RightHandRing3
										{
											OFFSET -3.178268 0.000000 0.000000
											CHANNELS 3 Xrotation Yrotation Zrotation
											End Site
											{
												OFFSET -0.119102 3.170624 0.185394
											}
										}
									}
								}
								JOINT newVegas:RightHandPinky1
								{
									OFFSET -15.989624 -0.606689 -7.535461
									CHANNELS 3 Xrotation Yrotation Zrotation
									JOINT newVegas:RightHandPinky2
									{
										OFFSET -2.538986 0.000000 0.000000
										CHANNELS 3 Xrotation Yrotation Zrotation
										JOINT newVegas:RightHandPinky3
										{
											OFFSET -2.593102 0.000000 0.000000
											CHANNELS 3 Xrotation Yrotation Zrotation
											End Site
											{
												OFFSET 0.150902 2.584198 0.152708
											}
										}
									}
								}
							}
							JOINT newVegas:Right_CapeC
							{
								OFFSET -15.715958 -8.608795 -6.935905
								CHANNELS 3 Xrotation Yrotation Zrotation
								JOINT newVegas:Right_CapeC1
								{
									OFFSET 0.000000 -8.688499 0.000000
									CHANNELS 3 Xrotation Yrotation Zrotation
									End Site
									{
										OFFSET 0.000000 8.688499 0.000000
									}
								}
							}
							JOINT newVegas:Right_Sleeve
							{
								OFFSET -0.267448 -0.649994 0.577675
								CHANNELS 3 Xrotation Yrotation Zrotation
								End Site
								{
									OFFSET 0.000000 15.991302 0.000000
								}
							}
						}
						JOINT newVegas:Right_CapeA
						{
							OFFSET -5.115540 -8.608795 -10.395824
							CHANNELS 3 Xrotation Yrotation Zrotation
							JOINT newVegas:Right_CapeA1
							{
								OFFSET 0.000000 -8.688499 0.000000
								CHANNELS 3 Xrotation Yrotation Zrotation
								End Site
								{
									OFFSET 0.000000 8.688499 0.000000
								}
							}
						}
						JOINT newVegas:Right_CapeB
						{
							OFFSET -26.118187 -8.608795 -7.079266
							CHANNELS 3 Xrotation Yrotation Zrotation
							JOINT newVegas:Right_CapeB1
							{
								OFFSET 0.000000 -8.688499 0.000000
								CHANNELS 3 Xrotation Yrotation Zrotation
								End Site
								{
									OFFSET 0.000000 8.688499 0.000000
								}
							}
						}
					}
				}
				JOINT newVegas:Left_Collar
				{
					OFFSET 18.625099 8.655502 8.828100
					CHANNELS 3 Xrotation Yrotation Zrotation
					JOINT newVegas:Left_Collar1
					{
						OFFSET 14.783401 10.540405 -1.259500
						CHANNELS 3 Xrotation Yrotation Zrotation
						End Site
						{
							OFFSET 0.000000 18.199875 0.000000
						}
					}
				}
				JOINT newVegas:Collar_Back
				{
					OFFSET 0.000000 15.630707 -20.132601
					CHANNELS 3 Xrotation Yrotation Zrotation
					End Site
					{
						OFFSET 0.000000 22.523010 0.000000
					}
				}
				JOINT newVegas:Left_Peck
				{
					OFFSET 17.239599 -5.132599 25.482599
					CHANNELS 3 Xrotation Yrotation Zrotation
					End Site
					{
						OFFSET 0.000000 22.523010 0.000000
					}
				}
				JOINT newVegas:Right_Peck
				{
					OFFSET -17.239599 -5.132202 25.482599
					CHANNELS 3 Xrotation Yrotation Zrotation
					End Site
					{
						OFFSET 0.000000 22.523010 0.000000
					}
				}
				JOINT newVegas:Right_Collar
				{
					OFFSET -18.625099 8.655792 8.828100
					CHANNELS 3 Xrotation Yrotation Zrotation
					JOINT newVegas:Right_Collar1
					{
						OFFSET -14.783401 10.539993 -1.259500
						CHANNELS 3 Xrotation Yrotation Zrotation
						End Site
						{
							OFFSET 0.000000 18.199631 0.000000
						}
					}
				}
			}
		}
		JOINT newVegas:Belly
		{
			OFFSET 0.000000 -6.540398 9.014299
			CHANNELS 3 Xrotation Yrotation Zrotation
			End Site
			{
				OFFSET 0.000000 11.566666 0.000000
			}
		}
	}
	JOINT newVegas:ElvisFacialAnim_Joint
	{
		OFFSET 1.000000 -95.330101 -8.825800
		CHANNELS 3 Xrotation Yrotation Zrotation
		End Site
		{
			OFFSET 0.000000 35.315800 0.000000
		}
	}
}
MOTION
Frames: 4
Frame Time: 0.016667
-2.681002 80.373825 2.552225 -5.398395 -46.091052 -0.138902 -0.000000 -0.000001 -0.000001 -36.910878 3.269470 21.343901 62.508436 -8.152305 4.188297 -22.911272 -6.711830 -18.589808 -0.000000 -0.000000 -0.000000 -0.000002 -0.000005 0.000003 -20.977729 -8.981011 -32.624709 63.053725 -6.514537 -7.419382 -31.031988 -9.960292 27.205251 0.000000 -0.000000 -0.000000 0.000001 -0.000001 -0.000000 9.462109 7.035682 -1.694602 2.187715 0.989896 -0.915630 2.202828 0.982776 -0.894152 2.650019 3.452598 -0.064153 2.650016 3.452599 -0.064147 -0.000000 -0.000001 -0.000000 2.650189 3.452601 -0.064180 2.650019 3.452701 -0.064191 -0.000000 0.000002 -0.000000 -0.000000 -0.000001 -0.000000 1.117178 3.546348 -8.633310 -53.486996 4.935513 -51.502983 0.000264 -106.358046 0.000272 1.988608 -7.706152 -15.869265 -6.141210 -11.690805 -6.761687 9.914090 42.595512 3.409872 0.000003 -0.000001 -0.000001 0.255313 3.378223 -45.814348 5.654093 5.847755 -88.067455 0.000001 -0.000001 -0.000001 -0.461471 3.841585 -39.722679 6.450740 5.820338 -95.892851 0.000001 0.000001 0.000001 0.469723 4.966818 -39.799437 8.181035 5.368603 -113.502970 0.000001 0.000001 0.000001 -3.762427 9.063718 -45.253818 5.342513 5.828979 -85.005304 0.000001 -0.000005 -0.000003 -0.000000 0.000002 0.000000 -0.000000 0.000002 0.000000 -0.000000 0.000002 0.000001 0.000002 0.000000 0.000001 0.000002 -0.000001 0.000000 0.000002 0.000000 0.000001 0.000002 -0.000002 0.000001 3.036130 13.027198 -5.371408 -48.713705 27.172825 83.457077 0.000054 105.988335 -0.000071 -8.345357 17.548095 8.775670 -7.341094 13.749657 7.412327 9.855724 -44.489100 -3.903282 0.000000 -0.000006 -0.000001 -0.124370 -2.384791 45.108857 4.500586 -4.654542 88.071157 0.000000 -0.000002 0.000003 -0.761625 -2.932901 39.031068 5.133880 -4.632739 95.881670 0.000001 0.000000 -0.000000 0.154761 -4.068802 39.122675 6.509730 -4.273579 113.462898 -0.000001 0.000002 0.000000 -4.198876 -8.025535 44.637779 4.252902 -4.639603 85.014818 -0.000001 -0.000000 -0.000001 0.000000 -0.000003 0.000000 0.000002 -0.000003 -0.000001 0.000000 -0.000003 0.000001 0.000000 -0.000001 0.000001 0.000000 0.000000 0.000001 0.000000 -0.000001 0.000001 0.000000 -0.000000 0.000001 -0.000000 -0.000001 0.000000 -0.000000 -0.000001 0.000000 -0.000000 -0.000001 0.000000 -0.000000 -0.000001 0.000000 -0.000000 -0.000001 0.000000 -0.000000 -0.000001 0.000000 -0.000000 -0.000001 0.000000 0.000000 0.000001 -0.000000 -0.000000 -0.000001 -0.000001 
-2.559423 80.510399 2.441536 -5.727628 -46.267811 -0.157191 0.000000 0.000001 0.000000 -36.416820 3.509992 21.021024 61.948129 -7.869856 4.219728 -22.598734 -6.716935 -18.676369 -0.000000 0.000002 -0.000000 -0.000001 -0.000003 -0.000000 -21.052742 -8.730733 -32.846899 63.075267 -6.420781 -7.412877 -30.852012 -9.861126 27.096826 0.000000 -0.000001 -0.000000 -0.000001 0.000002 -0.000003 9.273903 7.138083 -1.678644 2.640260 1.191269 -1.060358 2.654104 1.184981 -1.039338 2.627893 3.245140 -0.130359 2.627891 3.245146 -0.130358 0.000000 0.000001 -0.000000 2.627964 3.245151 -0.130364 2.627895 3.245161 -0.130360 -0.000001 0.000000 -0.000001 0.000000 0.000001 -0.000000 0.981717 3.207199 -8.086433 -52.083512 4.488240 -52.459661 -0.000171 -105.430766 -0.000173 1.015810 -5.582475 -15.643300 -6.141212 -11.690803 -6.761681 9.914090 42.595512 3.409866 0.000004 0.000001 -0.000003 0.255314 3.378225 -45.814351 5.654092 5.847758 -88.067455 0.000001 -0.000001 0.000001 -0.461469 3.841587 -39.722679 6.450737 5.820337 -95.892857 -0.000000 -0.000000 -0.000001 0.469724 4.966820 -39.799441 8.181037 5.368606 -113.502977 -0.000001 0.000003 0.000002 -3.762423 9.063719 -45.253818 5.342513 5.828980 -85.005304 0.000000 -0.000002 0.000000 -0.000000 0.000002 -0.000002 -0.000000 0.000002 -0.000002 -0.000000 0.000003 -0.000002 -0.000001 0.000003 -0.000001 -0.000001 0.000002 -0.000001 -0.000001 0.000003 -0.000001 -0.000001 0.000002 -0.000001 3.469381 13.680574 -5.027490 -48.559220 27.223990 81.465702 -0.000162 106.430999 0.000152 -8.957041 17.278922 9.150930 -7.341094 13.749663 7.412325 9.855730 -44.489093 -3.903282 0.000000 -0.000001 -0.000002 -0.124369 -2.384791 45.108857 4.500586 -4.654541 88.071157 0.000001 0.000002 -0.000000 -0.761626 -2.932902 39.031061 5.133880 -4.632740 95.881663 0.000000 0.000000 -0.000001 0.154761 -4.068803 39.122675 6.509729 -4.273575 113.462891 0.000001 -0.000003 -0.000001 -4.198878 -8.025537 44.637776 4.252902 -4.639602 85.014818 -0.000002 -0.000000 -0.000000 0.000001 0.000003 -0.000000 0.000000 0.000001 -0.000001 0.000001 0.000003 -0.000001 0.000001 0.000000 -0.000000 0.000001 0.000001 -0.000000 0.000001 0.000000 -0.000000 0.000001 0.000001 0.000001 0.000001 -0.000001 -0.000000 0.000001 -0.000001 -0.000000 0.000001 -0.000001 -0.000000 0.000001 -0.000001 -0.000000 0.000001 -0.000001 -0.000000 0.000001 -0.000001 -0.000000 0.000001 -0.000001 -0.000000 0.000000 -0.000001 0.000000 0.000000 0.000001 0.000000 
-2.424549 80.645706 2.342883 -5.978194 -46.481654 -0.045946 0.000000 -0.000001 -0.000000 -35.882272 3.709481 20.582031 61.312730 -7.450369 4.183720 -22.272745 -6.726662 -18.784904 -0.000000 -0.000002 -0.000000 -0.000001 0.000001 0.000002 -21.200759 -8.352521 -33.133606 63.134109 -6.347620 -7.400658 -30.653045 -9.776716 27.028457 0.000000 0.000001 0.000000 0.000002 -0.000000 -0.000002 9.086152 7.392846 -1.809516 3.124197 1.480135 -1.284677 3.136775 1.474861 -1.263945 2.631081 3.001348 -0.243497 2.631073 3.001354 -0.243509 -0.000001 0.000001 -0.000001 2.631148 3.001332 -0.243502 2.631015 3.001373 -0.243501 0.000001 0.000001 -0.000001 -0.000001 0.000001 -0.000000 0.863354 2.875893 -7.567500 -50.820408 3.482941 -53.809774 0.001534 -104.407754 0.001501 -0.646201 -3.189670 -15.370719 -6.141208 -11.690807 -6.761687 9.914093 42.595515 3.409872 -0.000001 0.000002 -0.000001 0.255315 3.378223 -45.814351 5.654089 5.847757 -88.067455 0.000003 -0.000001 0.000001 -0.461472 3.841585 -39.722686 6.450741 5.820335 -95.892857 -0.000001 0.000002 0.000000 0.469723 4.966820 -39.799437 8.181041 5.368605 -113.502984 -0.000002 -0.000004 -0.000000 -3.762427 9.063713 -45.253818 5.342509 5.828977 -85.005304 -0.000000 -0.000003 -0.000001 -0.000000 0.000003 0.000000 -0.000000 0.000003 0.000000 -0.000000 0.000003 0.000001 0.000001 0.000003 0.000000 0.000001 0.000002 0.000001 0.000001 0.000003 0.000000 0.000001 0.000002 0.000001 3.937032 14.543559 -4.656809 -48.082097 26.964812 78.972478 0.000194 107.157684 -0.000198 -9.547692 17.015683 9.282260 -7.341092 13.749663 7.412326 9.855730 -44.489093 -3.903282 0.000002 -0.000001 0.000004 -0.124369 -2.384790 45.108851 4.500589 -4.654543 88.071157 -0.000001 -0.000001 -0.000000 -0.761626 -2.932903 39.031061 5.133879 -4.632740 95.881670 -0.000000 0.000000 0.000001 0.154762 -4.068803 39.122675 6.509730 -4.273578 113.462898 -0.000001 -0.000001 -0.000000 -4.198877 -8.025535 44.637776 4.252900 -4.639605 85.014818 0.000002 0.000003 0.000001 -0.000000 0.000001 0.000000 -0.000000 0.000000 -0.000003 -0.000000 0.000001 -0.000000 0.000001 0.000004 -0.000001 0.000001 0.000005 -0.000001 0.000001 0.000004 -0.000001 0.000001 0.000005 -0.000001 0.000001 0.000002 -0.000001 0.000001 0.000002 -0.000001 0.000001 0.000002 -0.000001 0.000001 0.000002 -0.000001 0.000001 0.000002 -0.000001 0.000001 0.000002 -0.000001 0.000001 0.000002 -0.000001 0.000000 -0.000003 0.000000 0.000000 -0.000001 -0.000000 
-2.272241 80.789612 2.277777 -6.279431 -46.549399 0.331478 0.000000 -0.000002 -0.000000 -35.181403 3.987240 19.749002 60.404882 -6.955666 4.066570 -21.779247 -6.801721 -18.831223 -0.000000 -0.000002 -0.000000 -0.000000 0.000001 -0.000002 -21.176438 -7.763754 -33.693511 63.300520 -6.242635 -7.355469 -30.512893 -9.988867 27.050042 0.000000 0.000000 -0.000000 -0.000001 -0.000001 -0.000003 8.793740 8.083630 -2.121314 3.590461 1.988623 -1.614736 3.602246 1.984439 -1.593469 2.693789 2.659479 -0.430787 2.693784 2.659498 -0.430794 0.000000 0.000000 -0.000001 2.693790 2.659485 -0.430789 2.693853 2.659500 -0.430797 -0.000001 -0.000001 -0.000000 0.000000 0.000000 -0.000000 0.788834 2.666421 -7.211886 -49.654639 0.704925 -56.253322 -0.001005 -102.244715 -0.001004 -2.418235 -0.428779 -15.025525 -6.141211 -11.690803 -6.761687 9.914099 42.595508 3.409868 0.000002 -0.000003 -0.000005 0.255313 3.378222 -45.814348 5.654095 5.847756 -88.067455 0.000001 -0.000002 -0.000001 -0.461472 3.841584 -39.722679 6.450745 5.820338 -95.892857 0.000001 -0.000001 0.000000 0.469725 4.966817 -39.799444 8.181038 5.368606 -113.502977 0.000000 -0.000001 0.000001 -3.762425 9.063716 -45.253818 5.342517 5.828979 -85.005304 0.000000 -0.000003 -0.000004 -0.000000 -0.000002 0.000002 -0.000000 -0.000002 0.000002 -0.000000 -0.000001 0.000002 0.000001 -0.000001 0.000000 0.000001 -0.000002 0.000001 0.000001 -0.000001 0.000000 0.000001 -0.000003 0.000001 4.427755 15.576504 -4.226197 -46.369359 25.864357 75.178328 -0.000016 108.408387 0.000003 -10.196596 16.852080 9.256431 -7.341094 13.749659 7.412324 9.855729 -44.489093 -3.903276 0.000002 0.000000 -0.000002 -0.124370 -2.384790 45.108851 4.500582 -4.654544 88.071150 0.000000 0.000000 0.000002 -0.761625 -2.932901 39.031061 5.133875 -4.632744 95.881670 -0.000000 -0.000000 -0.000000 0.154762 -4.068801 39.122675 6.509732 -4.273575 113.462898 -0.000000 0.000001 -0.000000 -4.198878 -8.025541 44.637776 4.252903 -4.639605 85.014818 0.000000 0.000001 0.000001 -0.000001 0.000003 -0.000001 -0.000001 -0.000000 0.000001 -0.000001 0.000003 -0.000003 0.000001 -0.000001 -0.000003 0.000001 0.000000 -0.000001 0.000001 -0.000001 -0.000003 0.000001 -0.000000 -0.000002 0.000001 -0.000003 0.000000 0.000001 -0.000003 0.000000 0.000001 -0.000003 0.000000 0.000001 -0.000003 0.000000 0.000001 -0.000003 0.000000 0.000001 -0.000003 0.000000 0.000001 -0.000003 0.000000 -0.000000 0.000000 -0.000001 0.000000 -0.000002 -0.000000 
